<?xml version="1.0" encoding="UTF-8" standalone="no"?>
<svg
   xmlns:dc="http://purl.org/dc/elements/1.1/"
   xmlns:cc="http://creativecommons.org/ns#"
   xmlns:rdf="http://www.w3.org/1999/02/22-rdf-syntax-ns#"
   xmlns:svg="http://www.w3.org/2000/svg"
   xmlns="http://www.w3.org/2000/svg"
   xmlns:sodipodi="http://sodipodi.sourceforge.net/DTD/sodipodi-0.dtd"
   xmlns:inkscape="http://www.inkscape.org/namespaces/inkscape"
   width="5500mm"
   height="500mm"
   viewBox="0 0 5500 500"
   version="1.1"
   id="svg5"
   inkscape:version="1.0 (4035a4fb49, 2020-05-01)"
   sodipodi:docname="ola_negra.svg">
  <metadata
     id="metadata7">
    <rdf:RDF>
      <cc:Work
         rdf:about="">
        <dc:format>image/svg+xml</dc:format>
        <dc:type
           rdf:resource="http://purl.org/dc/dcmitype/StillImage" />
        <dc:title></dc:title>
      </cc:Work>
    </rdf:RDF>
  </metadata>
  <sodipodi:namedview
     id="namedview7"
     pagecolor="#ffffff"
     bordercolor="#666666"
     borderopacity="1.0"
     inkscape:pageshadow="2"
     inkscape:pageopacity="0.0"
     inkscape:pagecheckerboard="0"
     inkscape:document-units="px"
     showgrid="false"
     width="5000mm"
     inkscape:zoom="0.022582188"
     inkscape:cx="8170.1157"
     inkscape:cy="1956.0712"
     inkscape:window-width="1366"
     inkscape:window-height="705"
     inkscape:window-x="-8"
     inkscape:window-y="-8"
     inkscape:window-maximized="1"
     inkscape:current-layer="layer1"
     height="500mm"
     inkscape:document-rotation="0"
     units="mm" />
  <defs
     id="defs2" />
  <g
     inkscape:label="Capa 1"
     inkscape:groupmode="layer"
     id="layer1">
    <path
       sodipodi:nodetypes="csssssssssssssscccc"
       id="path3427"
       d="m 5500.7557,102.84391 c 0,0 -173.242,-161.248537 -476.5091,-82.015225 C 4743.185,94.26048 4773.1527,91.924403 4602.5111,27.483862 4431.8693,-36.956675 4310.6606,29.113474 4162.5567,87.695779 4014.4525,146.27808 3872.8152,-37.931304 3695.7345,8.9345418 3518.6534,55.800388 3434.4177,122.57603 3337.8278,72.781067 3241.2382,22.986108 3136.0945,-26.89508 3007.3083,19.970765 2878.5221,66.836611 2794.0968,137.25209 2645.9927,61.095094 2497.8885,-15.061908 2305.1888,-23.346698 2186.0616,70.384994 2066.9344,164.11668 1925.6717,-12.615452 1771.2449,3.0153405 1624.2456,17.894338 1519.6794,114.0796 1394.8354,48.226321 1270.7642,-17.219331 1148.8693,-8.9955111 1013.6437,55.445026 878.41822,119.88557 868.63086,91.985367 755.94299,30.473949 643.25506,-31.037475 510.74711,6.5103239 432.24747,64.410054 366.72812,112.7358 323.17556,4.4115295 220.30837,2.7209502 97.389876,0.70083621 107.06804,32.478943 3.0960539,68.669159 -0.78533959,479.1318 -7.519915,152.57013 3.4703953,495.02049 L 5505.8614,500.87873 Z"
       style="fill:#000000;fill-opacity:0.674699;stroke:#292a2b;stroke-width:0.277395px;stroke-linecap:butt;stroke-linejoin:miter;stroke-opacity:0" />
  </g>
</svg>
