<?xml version="1.0" encoding="UTF-8" standalone="no"?>
<svg
   sodipodi:docname="ola_roja.svg"
   inkscape:version="1.1 (c68e22c387, 2021-05-23)"
   id="svg5"
   version="1.1"
   viewBox="0 0 5000 500"
   height="500mm"
   width="5000mm"
   xmlns:inkscape="http://www.inkscape.org/namespaces/inkscape"
   xmlns:sodipodi="http://sodipodi.sourceforge.net/DTD/sodipodi-0.dtd"
   xmlns="http://www.w3.org/2000/svg"
   xmlns:svg="http://www.w3.org/2000/svg"
   xmlns:rdf="http://www.w3.org/1999/02/22-rdf-syntax-ns#"
   xmlns:cc="http://creativecommons.org/ns#"
   xmlns:dc="http://purl.org/dc/elements/1.1/">
  <metadata
     id="metadata7">
    <rdf:RDF>
      <cc:Work
         rdf:about="">
        <dc:format>image/svg+xml</dc:format>
        <dc:type
           rdf:resource="http://purl.org/dc/dcmitype/StillImage" />
      </cc:Work>
    </rdf:RDF>
  </metadata>
  <sodipodi:namedview
     units="mm"
     inkscape:document-rotation="0"
     height="500mm"
     inkscape:current-layer="layer1"
     inkscape:window-maximized="1"
     inkscape:window-y="-8"
     inkscape:window-x="-8"
     inkscape:window-height="1027"
     inkscape:window-width="1920"
     inkscape:cy="675.17772"
     inkscape:cx="15908.753"
     inkscape:zoom="0.25548829"
     width="5000mm"
     showgrid="false"
     inkscape:document-units="px"
     inkscape:pagecheckerboard="0"
     inkscape:pageopacity="0.0"
     inkscape:pageshadow="2"
     borderopacity="1.0"
     bordercolor="#666666"
     pagecolor="#ffffff"
     id="namedview7" />
  <defs
     id="defs2" />
  <g
     id="layer1"
     inkscape:groupmode="layer"
     inkscape:label="Capa 1">
    <path
       style="fill:#00a300;fill-opacity:0.6901961;stroke:#000000;stroke-width:0.264583px;stroke-linecap:butt;stroke-linejoin:miter;stroke-opacity:1"
       d="m 5004.1424,102.84391 c 0,0 -157.6088,-161.248537 -433.5092,-82.015225 -255.6988,73.431795 -228.4353,71.095718 -383.6783,6.655177 -155.2432,-64.440537 -265.5141,1.629612 -400.2532,60.211917 C 3651.9624,146.27808 3523.1063,-37.931304 3362.0053,8.9345418 3200.9039,55.800388 3124.2696,122.57603 3036.3959,72.781067 2948.5225,22.986108 2852.8669,-26.89508 2735.7023,19.970765 2618.5377,66.836611 2541.7309,137.25209 2406.9916,61.095094 2272.2523,-15.061908 2096.9417,-23.346698 1988.5645,70.384994 1880.1872,164.11668 1751.672,-12.615452 1611.1806,3.0153405 1477.4464,17.894338 1382.3162,114.0796 1268.7381,48.226321 1155.863,-17.219331 1044.9678,-8.9955111 921.94492,55.445026 798.92212,119.88557 790.01797,91.985367 687.49899,30.473949 584.97996,-31.037475 464.42945,6.5103239 393.01358,64.410054 333.40666,112.7358 293.78426,4.4115295 200.19975,2.7209502 88.373353,0.70083621 97.178167,32.478943 2.5885542,68.669159 -0.94258441,479.1318 -7.0694354,152.57013 2.9291153,495.02049 L 5008.7873,500.87873 Z"
       id="path3427"
       sodipodi:nodetypes="csssssssssssssscccc" />
  </g>
</svg>
